<svg
    width="32"
    height="32"
    viewBox="0 0 32 32"
    xmlns="http://www.w3.org/2000/svg"
>
    <rect x="0" y="5" width="32" height="23.5" fill="#000" stroke="#000" stroke-width="0"/>
    <line x1="8" y1="6" x2="5" y2="2" stroke="#000" stroke-width="2"/>
    <line x1="24" y1="6" x2="27" y2="2" stroke="#000" stroke-width="2"/>
    <line x1="5" y1="16.5" x2="15" y2="16.5" stroke="#fff" stroke-width="2"/>
    <line x1="10" y1="16.5" x2="10" y2="26.5" stroke="#fff" stroke-width="2"/>
    <polyline points="17,16 21.4,25.5 21.6,25.5 26,16" stroke="#fff" stroke-width="2"/>
    <path
        d="
            M 2 13.5
            V 8
            h 1.5
            q 1 0 1 1.5
            t -1 1.5
            h -1.5

            M 7 7.25
            V 11.5
            q 0 1.5 1.5 1.5
            t 1.5 -1.5
            V 13.75
            V 7.25

            M 11.75 8
            h 3.25
            v 0.25
            l -2.5 4.5
            v 0.25
            h 3.25

            M 16.75 8
            h 3.25
            v 0.25
            l -2.5 4.5
            v 0.25
            h 3.25

            M 22.5 7.25
            V 13
            h 3.25

            M 30.75 8
            h -3.25
            V 13
            h 3.25
            M 30 10.5
            h -2.5
        "
        stroke="#ff0"
        stroke-width="1.5"
    />
</svg>
